<svg data-v-0dd9719b="" version="1.0" xmlns="http://www.w3.org/2000/svg" xmlns:xlink="http://www.w3.org/1999/xlink" width="100%" height="100%" viewBox="0 0 340.000000 250.000000" preserveAspectRatio="xMidYMid meet" color-interpolation-filters="sRGB" style="margin: auto;"> <rect data-v-0dd9719b="" x="0" y="0" width="100%" height="100%" fill="#fff" fill-opacity="1" class="background"></rect> <rect data-v-0dd9719b="" x="0" y="0" width="100%" height="100%" fill="url(#watermark)" fill-opacity="1" class="watermarklayer"></rect> <g data-v-0dd9719b="" fill="#333" class="icon-text-wrapper icon-svg-group iconsvg" transform="translate(48.01499938964844,92.21383285522461)"><g class="iconsvg-imagesvg" transform="translate(0,0)"><g><rect fill="#333" fill-opacity="0" stroke-width="2" x="0" y="0" width="60" height="65.57233721667286" class="image-rect"></rect> <svg x="0" y="0" width="60" height="65.57233721667286" filtersec="colorsb2269815186" class="image-svg-svg primary" style="overflow: visible;"><svg xmlns="http://www.w3.org/2000/svg" viewBox="-0.000005335050900612259 0 46.28000259399414 50.57786560058594"><path d="M21.22 0v21.66a4.19 4.19 0 0 1-2.11 3.64L.36 36.12A8.52 8.52 0 0 1 0 33.66V16.72a8.48 8.48 0 0 1 1.13-4.23 8.59 8.59 0 0 1 3.11-3.11L18.9.91A8.75 8.75 0 0 1 21.22 0z" fill="#2a3294"></path><path d="M44 39.45A8.7 8.7 0 0 1 42 41l-14.62 8.46a8.6 8.6 0 0 1-8.48 0L4.24 41a8.42 8.42 0 0 1-1.95-1.56L21 28.63a4.17 4.17 0 0 1 4.21 0z" fill="#ff006f"></path><path d="M46.28 16.72v16.94a8.52 8.52 0 0 1-.37 2.46L27.16 25.3a4.23 4.23 0 0 1-2.1-3.65V0a8.89 8.89 0 0 1 2.32.91L42 9.38a8.52 8.52 0 0 1 4.24 7.34z" fill="#0087ff"></path></svg></svg> <!----></g></g> <g transform="translate(67.00000381469727,20.701167106628418)"><g data-gra="path-name" fill-rule="" class="tp-name iconsvg-namesvg"><g transform="scale(1)"><g><path d="M17.91-7.14L17.91-7.14Q17.91-4.95 16.8-3.26 15.69-1.56 13.6-0.62 11.51 0.32 8.7 0.32L8.7 0.32Q6.35 0.32 4.76-0.01 3.17-0.34 1.45-1.16L1.45-1.16 1.45-6.82Q3.26-5.89 5.23-5.36 7.19-4.84 8.83-4.84L8.83-4.84Q10.24-4.84 10.9-5.33 11.56-5.82 11.56-6.59L11.56-6.59Q11.56-7.08 11.3-7.44 11.03-7.8 10.44-8.17 9.86-8.54 7.32-9.68L7.32-9.68Q5.02-10.73 3.87-11.71 2.72-12.69 2.16-13.96 1.61-15.23 1.61-16.96L1.61-16.96Q1.61-20.21 3.97-22.03 6.34-23.85 10.47-23.85L10.47-23.85Q14.12-23.85 17.91-22.16L17.91-22.16 15.97-17.25Q12.67-18.77 10.28-18.77L10.28-18.77Q9.04-18.77 8.47-18.33 7.91-17.9 7.91-17.25L7.91-17.25Q7.91-16.56 8.63-16.02 9.34-15.47 12.51-14.02L12.51-14.02Q15.55-12.65 16.73-11.09 17.91-9.52 17.91-7.14ZM42.92 0L35.97 0 34.81-4.41 27.18-4.41 25.99 0 19.01 0 26.68-23.61 35.15-23.61 42.92 0ZM28.49-9.62L33.49-9.62 32.48-13.48Q32.13-14.76 31.62-16.8 31.11-18.85 30.95-19.73L30.95-19.73Q30.81-18.91 30.38-17.03 29.96-15.15 28.49-9.62L28.49-9.62ZM61.75 0L55.7 0 50.89-16.93 50.75-16.93Q51.09-12.61 51.09-10.21L51.09-10.21 51.09 0 45.46 0 45.46-23.51 53.92-23.51 58.82-6.82 58.95-6.82 63.76-23.51 72.23-23.51 72.23 0 66.39 0 66.39-10.31Q66.39-11.11 66.42-12.09 66.44-13.07 66.64-16.9L66.64-16.9 66.49-16.9 61.75 0ZM91.25-5.18L91.25 0 77.3 0 77.3-23.51 91.25-23.51 91.25-18.41 83.65-18.41 83.65-14.71 90.69-14.71 90.69-9.62 83.65-9.62 83.65-5.18 91.25-5.18ZM112.43-16.03L112.43-16.03Q112.43-12.09 110.11-9.95 107.78-7.8 103.51-7.8L103.51-7.8 101.72-7.8 101.72 0 95.37 0 95.37-23.51 103.51-23.51Q107.96-23.51 110.2-21.56 112.43-19.62 112.43-16.03ZM101.72-18.38L101.72-12.98 102.88-12.98Q104.31-12.98 105.16-13.78 106-14.58 106-16L106-16Q106-18.38 103.36-18.38L103.36-18.38 101.72-18.38ZM137.55 0L130.6 0 129.44-4.41 121.81-4.41 120.62 0 113.64 0 121.31-23.61 129.78-23.61 137.55 0ZM123.12-9.62L128.13-9.62 127.11-13.48Q126.76-14.76 126.25-16.8 125.75-18.85 125.59-19.73L125.59-19.73Q125.44-18.91 125.01-17.03 124.59-15.15 123.12-9.62L123.12-9.62ZM149.53-8.86L149.53-13.76 159.67-13.76 159.67-1.09Q155.54 0.32 150.59 0.32L150.59 0.32Q145.15 0.32 142.19-2.83 139.22-5.98 139.22-11.82L139.22-11.82Q139.22-17.51 142.47-20.68 145.72-23.85 151.57-23.85L151.57-23.85Q153.79-23.85 155.76-23.43 157.73-23.01 159.19-22.37L159.19-22.37 157.18-17.38Q154.64-18.64 151.6-18.64L151.6-18.64Q148.82-18.64 147.3-16.83 145.78-15.02 145.78-11.66L145.78-11.66Q145.78-8.36 147.16-6.63 148.53-4.9 151.12-4.9L151.12-4.9Q152.54-4.9 153.73-5.18L153.73-5.18 153.73-8.86 149.53-8.86ZM178.42-5.18L178.42 0 164.47 0 164.47-23.51 178.42-23.51 178.42-18.41 170.82-18.41 170.82-14.71 177.86-14.71 177.86-9.62 170.82-9.62 170.82-5.18 178.42-5.18Z" transform="translate(-1.4500000476837158, 23.850000381469727)"></path></g> <!----> <!----> <!----> <!----> <!----> <!----> <!----></g></g> <!----></g></g><defs v-gra="od"></defs></svg>